<svg id="Layer_1" data-name="Layer 1" xmlns="http://www.w3.org/2000/svg" viewBox="0 0 270.48953 95"><defs><style>.cls-1{fill:#639;}.cls-2{fill:#056bb7;}.cls-3,.cls-4{fill:none;stroke:#fff;stroke-miterlimit:10;}.cls-3{stroke-width:0.73488px;}.cls-4{stroke-width:0.74589px;}</style></defs><title>logo_3</title><path class="cls-1" d="M132.70388,63.65814C125.35629,80.53106,106.85424,92.5,85.18541,92.5c-23.13172,0-42.6561-13.63962-48.84834-32.31623,3.41613-.63165,22.85741-3.707,54.66659,2.00317C115.91411,66.65036,127.65035,65.15425,132.70388,63.65814Z"/><path class="cls-1" d="M85.18541,2.5c-22.45015,0-41.50907,12.85-48.27487,30.69542,2.41875.9226,20.48025,7.04838,59.155-.11637,24.01276-4.44679,33.00607-3.55742,36.22273-2.65147C124.683,14.03676,106.45529,2.5,85.18541,2.5ZM54.43626,25.54187a.0819.0819,0,0,1-.144-.07533l.007-.01893a19.2842,19.2842,0,0,1,3.71275-6.07419,21.121,21.121,0,0,1,2.6366-2.49561,24.90877,24.90877,0,0,1,3.06807-1.99424c.54881-.26944,1.11126-.51107,1.66591-.76569.57214-.212,1.13668-.44542,1.7177-.628.59036-.15153,1.17519-.31742,1.76509-.45232.5932-.11922,1.18848-.23062,1.78731-.29688a19.40181,19.40181,0,0,1,7.10743.39287l.01953.00492a.0819.0819,0,0,1-.01953.16132A26.77762,26.77762,0,0,0,54.43626,25.54187Zm24.19864-8.587A27.03641,27.03641,0,0,0,68.52,19.67111a26.16931,26.16931,0,0,0-8.24127,6.45305.081.081,0,0,1-.13626-.0837l.01-.0244a14.08528,14.08528,0,0,1,3.105-4.56134,18.14566,18.14566,0,0,1,2.12025-1.82,24.12731,24.12731,0,0,1,2.40344-1.45152,24.04513,24.04513,0,0,1,2.60819-1.03527,18.57749,18.57749,0,0,1,2.72634-.594,14.48016,14.48016,0,0,1,5.50722.23509l.02531.00634a.08107.08107,0,0,1-.01329.15945Z"/><path class="cls-2" d="M5.08071,30.57685H8.689V40.83977H22.48128V30.57685h3.60833V55.29333H22.48128V43.98123H8.689v11.3121H5.08071Z"/><path class="cls-2" d="M31.20081,47.01838a7.90172,7.90172,0,0,1,.73321-3.38553,8.82813,8.82813,0,0,1,2.01026-2.75865,9.46161,9.46161,0,0,1,3.00677-1.86746,10.51136,10.51136,0,0,1,7.44147,0,9.484,9.484,0,0,1,3.00677,1.86746,8.8439,8.8439,0,0,1,2.01025,2.75865,7.91645,7.91645,0,0,1,.73321,3.38553,8.02777,8.02777,0,0,1-.73321,3.40376,8.57257,8.57257,0,0,1-2.01025,2.75865A9.647,9.647,0,0,1,44.39252,55.032a10.51136,10.51136,0,0,1-7.44147,0,9.62384,9.62384,0,0,1-3.00677-1.85125A8.55779,8.55779,0,0,1,31.934,50.42214,8.01276,8.01276,0,0,1,31.20081,47.01838Zm3.60833,0a6.34341,6.34341,0,0,0,.41319,2.32217,5.16558,5.16558,0,0,0,1.16463,1.8148,5.39943,5.39943,0,0,0,1.84214,1.18691,7.05327,7.05327,0,0,0,4.88537,0,5.40471,5.40471,0,0,0,1.84113-1.18691,5.18212,5.18212,0,0,0,1.16564-1.8148,6.72917,6.72917,0,0,0,0-4.64333,5.18208,5.18208,0,0,0-1.16564-1.81479,5.41959,5.41959,0,0,0-1.84113-1.18691,7.05312,7.05312,0,0,0-4.88537,0A5.41426,5.41426,0,0,0,36.387,42.88243a5.16554,5.16554,0,0,0-1.16463,1.81479A6.34182,6.34182,0,0,0,34.80914,47.01838Z"/><path class="cls-2" d="M54.3891,38.74546h3.15665v2.58345h.07494a2.70512,2.70512,0,0,1,.58231-.873,5.86211,5.86211,0,0,1,1.20312-.99551,7.64185,7.64185,0,0,1,1.72871-.80207,6.90283,6.90283,0,0,1,2.19862-.33218,6.6978,6.6978,0,0,1,3.345.76765,5.89375,5.89375,0,0,1,2.21685,2.30495A5.51259,5.51259,0,0,1,71.338,39.09384a7.24419,7.24419,0,0,1,3.19514-.76765,7.86889,7.86889,0,0,1,3.38248.6289,5.3576,5.3576,0,0,1,2.067,1.65783,6.09642,6.09642,0,0,1,1.033,2.33938,12.78,12.78,0,0,1,.28255,2.705v9.636H77.91562V46.07655a12.25816,12.25816,0,0,0-.13165-1.81581,4.01061,4.01061,0,0,0-.54484-1.5363,3.02262,3.02262,0,0,0-1.16565-1.06437,4.23737,4.23737,0,0,0-1.992-.401,4.09691,4.09691,0,0,0-3.4949,1.39655,5.809,5.809,0,0,0-1.05222,3.59516v9.04259H66.15185V46.63456a16.24382,16.24382,0,0,0-.13165-2.16419,4.8365,4.8365,0,0,0-.5256-1.69327,2.793,2.793,0,0,0-1.12817-1.117,4.12034,4.12034,0,0,0-1.97279-.401,4.75417,4.75417,0,0,0-1.74795.33116,4.14019,4.14019,0,0,0-1.48364.99551A4.734,4.734,0,0,0,58.1473,44.278a7.068,7.068,0,0,0-.37673,2.42648v8.58889H54.3891Z"/><path class="cls-2" d="M85.54445,47.01838a7.90172,7.90172,0,0,1,.73321-3.38553,8.82813,8.82813,0,0,1,2.01026-2.75865,9.46161,9.46161,0,0,1,3.00677-1.86746,10.51136,10.51136,0,0,1,7.44147,0,9.484,9.484,0,0,1,3.00677,1.86746,8.84371,8.84371,0,0,1,2.01024,2.75865,7.91631,7.91631,0,0,1,.73322,3.38553,8.02762,8.02762,0,0,1-.73322,3.40376,8.57239,8.57239,0,0,1-2.01024,2.75865A9.647,9.647,0,0,1,98.73616,55.032a10.51136,10.51136,0,0,1-7.44147,0,9.62384,9.62384,0,0,1-3.00677-1.85125,8.55779,8.55779,0,0,1-2.01026-2.75865A8.01276,8.01276,0,0,1,85.54445,47.01838Zm3.60833,0a6.34341,6.34341,0,0,0,.41319,2.32217,5.16558,5.16558,0,0,0,1.16463,1.8148,5.39943,5.39943,0,0,0,1.84214,1.18691,7.05327,7.05327,0,0,0,4.88537,0,5.40471,5.40471,0,0,0,1.84113-1.18691,5.18226,5.18226,0,0,0,1.16564-1.8148,6.72917,6.72917,0,0,0,0-4.64333,5.18222,5.18222,0,0,0-1.16564-1.81479,5.41959,5.41959,0,0,0-1.84113-1.18691,7.05312,7.05312,0,0,0-4.88537,0,5.41426,5.41426,0,0,0-1.84214,1.18691A5.16554,5.16554,0,0,0,89.566,44.69722,6.34182,6.34182,0,0,0,89.15278,47.01838Z"/><path class="cls-2" d="M111.28783,48.17086a3.91535,3.91535,0,0,0,.50737,1.97278,5.006,5.006,0,0,0,1.33376,1.51807,6.29256,6.29256,0,0,0,1.91708.97727,7.34133,7.34133,0,0,0,2.25533.34939,5.34239,5.34239,0,0,0,2.74346-.68055,8.66262,8.66262,0,0,0,2.14191-1.79859l2.55611,1.81581a9.70554,9.70554,0,0,1-7.89315,3.38755,10.48111,10.48111,0,0,1-3.81391-.66434,8.34145,8.34145,0,0,1-2.89436-1.833,8.06293,8.06293,0,0,1-1.8229-2.75764,9.12124,9.12124,0,0,1-.639-3.4392,8.47692,8.47692,0,0,1,2.61283-6.19583,8.793,8.793,0,0,1,2.91258-1.833,10.00877,10.00877,0,0,1,3.68226-.66334,9.38388,9.38388,0,0,1,4.00328.76765,7.839,7.839,0,0,1,2.68675,2.00822,7.75155,7.75155,0,0,1,1.52212,2.79208,10.87094,10.87094,0,0,1,.46991,3.15969v1.117Zm10.67307-2.51358a6.22605,6.22605,0,0,0-.35648-1.92012,4.1873,4.1873,0,0,0-.958-1.51807,4.44565,4.44565,0,0,0-1.59808-1.01272,6.25,6.25,0,0,0-2.23608-.3666,5.79157,5.79157,0,0,0-2.27356.43648,5.57656,5.57656,0,0,0-1.748,1.13425,5.21735,5.21735,0,0,0-1.10792,1.55351,4.0165,4.0165,0,0,0-.395,1.69327Z"/><path class="cls-2" d="M128.76335,47.01838a7.90172,7.90172,0,0,1,.73321-3.38553,8.828,8.828,0,0,1,2.01025-2.75865,9.46173,9.46173,0,0,1,3.00677-1.86746,10.51139,10.51139,0,0,1,7.44148,0,9.48414,9.48414,0,0,1,3.00677,1.86746,8.84406,8.84406,0,0,1,2.01025,2.75865,7.9166,7.9166,0,0,1,.73321,3.38553,8.02792,8.02792,0,0,1-.73321,3.40376,8.57272,8.57272,0,0,1-2.01025,2.75865,9.64715,9.64715,0,0,1-3.00677,1.85125,10.51139,10.51139,0,0,1-7.44148,0,9.624,9.624,0,0,1-3.00677-1.85125,8.55762,8.55762,0,0,1-2.01025-2.75865A8.01276,8.01276,0,0,1,128.76335,47.01838Zm3.60833,0a6.3432,6.3432,0,0,0,.41319,2.32217,5.16558,5.16558,0,0,0,1.16463,1.8148,5.39923,5.39923,0,0,0,1.84214,1.18691,7.05324,7.05324,0,0,0,4.88536,0,5.40461,5.40461,0,0,0,1.84113-1.18691,5.182,5.182,0,0,0,1.16564-1.8148,6.72917,6.72917,0,0,0,0-4.64333,5.18194,5.18194,0,0,0-1.16564-1.81479,5.41949,5.41949,0,0,0-1.84113-1.18691,7.05309,7.05309,0,0,0-4.88536,0,5.41407,5.41407,0,0,0-1.84214,1.18691,5.16554,5.16554,0,0,0-1.16463,1.81479A6.34162,6.34162,0,0,0,132.37168,47.01838Z"/><path class="cls-2" d="M158.6761,67.42168a7.59545,7.59545,0,0,0-2.93993-2.15507,9.33609,9.33609,0,0,0-3.67415-.75549,10.469,10.469,0,0,0-4.19672.81017A9.62935,9.62935,0,0,0,144.655,67.529a9.97657,9.97657,0,0,0-2.07,3.28729,11.03993,11.03993,0,0,0-.73422,4.04278,10.44861,10.44861,0,0,0,.69574,3.80784,9.29384,9.29384,0,0,0,5.22159,5.31881,11.07326,11.07326,0,0,0,4.29394.78992,9.05588,9.05588,0,0,0,4.138-.8993,8.68465,8.68465,0,0,0,3.01689-2.51357l3.13336,2.19153a11.95281,11.95281,0,0,1-1.0826,1.1302,10.74443,10.74443,0,0,1-2.05076,1.47452,15.11346,15.11346,0,0,1-3.07462,1.29223,14.03568,14.03568,0,0,1-4.15823.557,14.40856,14.40856,0,0,1-5.85961-1.14843,14.16951,14.16951,0,0,1-4.44787-3.01791,13.03354,13.03354,0,0,1-2.80423-4.22305,12.41511,12.41511,0,0,1-.96714-4.75979,13.9769,13.9769,0,0,1,1.04411-5.44236A12.79231,12.79231,0,0,1,141.87,65.10457a13.15183,13.15183,0,0,1,4.5056-2.81942,16.1254,16.1254,0,0,1,5.80188-1.00664,15.17841,15.17841,0,0,1,5.31881.97019A9.89011,9.89011,0,0,1,161.77,65.23015Z"/><path class="cls-2" d="M166.21784,60.201h3.48173V87.36216h-3.48173Z"/><path class="cls-2" d="M174.68824,64.22553a2.20232,2.20232,0,0,1,.75447-1.671,2.65844,2.65844,0,0,1,3.59719,0,2.22541,2.22541,0,0,1,0,3.34,2.65841,2.65841,0,0,1-3.59719,0A2.20122,2.20122,0,0,1,174.68824,64.22553Zm.8122,6.10671h3.48174V87.36216h-3.48174Z"/><path class="cls-2" d="M184.51265,70.33224h3.48173v2.623h.077a4.94384,4.94384,0,0,1,2.28166-2.20976,8.02,8.02,0,0,1,3.75213-.84461,8.53263,8.53263,0,0,1,2.53383.37673,5.87972,5.87972,0,0,1,2.12773,1.16868,5.63933,5.63933,0,0,1,1.45022,2.0295,7.28291,7.28291,0,0,1,.54079,2.92881V87.36216H197.276V77.30179a5.32222,5.32222,0,0,0-.34736-2.0295A3.692,3.692,0,0,0,196,73.90714a3.58077,3.58077,0,0,0-1.33376-.75549,5.32482,5.32482,0,0,0-1.56668-.23292,6.04405,6.04405,0,0,0-2.01126.32407,4.21781,4.21781,0,0,0-1.62441,1.02285,4.78713,4.78713,0,0,0-1.08361,1.77834,7.58485,7.58485,0,0,0-.38585,2.55205v8.76612h-3.48173Z"/><path class="cls-2" d="M205.477,64.22553a2.1964,2.1964,0,0,1,.75549-1.671,2.65844,2.65844,0,0,1,3.59719,0,2.2274,2.2274,0,0,1,0,3.34,2.65841,2.65841,0,0,1-3.59719,0A2.1953,2.1953,0,0,1,205.477,64.22553Zm.8122,6.10671h3.48174V87.36216h-3.48174Z"/><path class="cls-2" d="M228.41108,74.8591a7.31769,7.31769,0,0,0-2.02951-1.41983,6.094,6.094,0,0,0-2.53381-.48408,5.98765,5.98765,0,0,0-2.49535.48408A5.0305,5.0305,0,0,0,219.57407,74.77a5.82316,5.82316,0,0,0-1.08361,1.94038,7.11544,7.11544,0,0,0-.3666,2.28065,5.9395,5.9395,0,0,0,.42534,2.24621,5.49275,5.49275,0,0,0,3.05437,3.0888,6.30858,6.30858,0,0,0,2.4366.44965,5.929,5.929,0,0,0,2.5156-.48611,6.39908,6.39908,0,0,0,1.93228-1.41781l2.47711,2.29888a7.84623,7.84623,0,0,1-3.15361,2.01127,11.77037,11.77037,0,0,1-3.80986.61168,11.23355,11.23355,0,0,1-3.88682-.64612,9.0997,9.0997,0,0,1-3.03614-1.81479,7.99072,7.99072,0,0,1-1.97278-2.80322,9.12676,9.12676,0,0,1-.69676-3.61136,9.25718,9.25718,0,0,1,.69676-3.62757,8.2639,8.2639,0,0,1,1.95252-2.83764,8.94227,8.94227,0,0,1,3.01791-1.85126,11.02247,11.02247,0,0,1,3.92531-.66434,11.207,11.207,0,0,1,3.84834.66434,8.53383,8.53383,0,0,1,3.1921,2.0295Z"/><path class="cls-3" d="M133.98392,31.2089a3.757,3.757,0,0,0-1.69561-.78131"/><path class="cls-3" d="M36.91056,33.19542c-.19117-.07481-.2826-.11637-.2826-.11637"/><path class="cls-4" d="M36.33705,60.18379c-.35741.06649-.54027.108-.54027.108"/><path class="cls-4" d="M136.0868,62.162a9.8207,9.8207,0,0,1-3.3829,1.49613"/></svg>