<svg xmlns="http://www.w3.org/2000/svg" viewBox="0 0 114 40" width="180" height="63">
	<style>
		tspan { white-space:pre }
		.shp0 { fill: #663399 } 
		.shp1 { fill: #056bb7 } 
		.shp2 { fill: #000000 } 
	</style>
	<path id="Layer" class="shp0" d="M38.28,26.18c-13.38,-2.4 -21.56,-1.11 -23,-0.84c2.6,7.86 10.82,13.61 20.55,13.61c9.12,0 16.9,-5.04 19.99,-12.14c-2.13,0.63 -7.06,1.26 -17.54,-0.62z" />
	<path id="Layer" class="shp0" d="M55.65,12.81c-1.35,-0.38 -5.14,-0.76 -15.24,1.12c-16.27,3.02 -23.87,0.44 -24.88,0.05c2.85,-7.51 10.86,-12.92 20.31,-12.92c8.95,0 16.62,4.86 19.81,11.76zM24.76,8.55c0.71,-0.65 1.51,-1.21 2.36,-1.66c0.86,-0.45 1.77,-0.79 2.71,-1c0.94,-0.22 1.91,-0.31 2.87,-0.28c0.01,0 0.02,0 0.02,-0.01c0.01,-0.01 0.01,-0.01 0.01,-0.02c0,-0.01 0,-0.02 -0.01,-0.02c0,-0.01 -0.01,-0.01 -0.02,-0.01l-0.01,0c-0.24,-0.06 -0.49,-0.11 -0.74,-0.14c-0.25,-0.04 -0.5,-0.06 -0.75,-0.08c-0.25,-0.01 -0.5,-0.02 -0.75,-0.01c-0.25,0.01 -0.5,0.03 -0.75,0.06c-0.25,0.03 -0.5,0.07 -0.75,0.13c-0.25,0.06 -0.49,0.13 -0.74,0.19c-0.24,0.08 -0.48,0.18 -0.72,0.26c-0.23,0.11 -0.47,0.21 -0.7,0.32c-0.11,0.06 -0.22,0.13 -0.33,0.19c-0.11,0.07 -0.22,0.13 -0.33,0.2c-0.11,0.07 -0.21,0.14 -0.32,0.22c-0.11,0.07 -0.21,0.15 -0.31,0.23c-0.1,0.08 -0.2,0.16 -0.29,0.24c-0.1,0.08 -0.19,0.17 -0.28,0.26c-0.09,0.09 -0.18,0.18 -0.27,0.27c-0.09,0.09 -0.18,0.19 -0.26,0.28c-0.17,0.19 -0.33,0.38 -0.48,0.58c-0.15,0.2 -0.29,0.41 -0.42,0.62c-0.13,0.21 -0.25,0.43 -0.36,0.66c-0.11,0.23 -0.21,0.46 -0.3,0.69l0,0.01c0,0.01 0,0.02 0,0.02c0,0.01 0.01,0.01 0.02,0.02c0.01,0 0.02,0 0.02,0c0.01,0 0.02,-0.01 0.02,-0.01c0.52,-0.81 1.15,-1.55 1.86,-2.21zM33.08,7.14c0.01,0 0.02,0 0.02,-0.01c0.01,-0.01 0.01,-0.01 0.01,-0.02c0,-0.01 0,-0.02 -0.01,-0.02c0,-0.01 -0.01,-0.01 -0.02,-0.01l-0.01,0c-0.19,-0.05 -0.38,-0.08 -0.57,-0.11c-0.19,-0.03 -0.39,-0.04 -0.58,-0.05c-0.19,-0.01 -0.39,-0.01 -0.58,0c-0.19,0.01 -0.39,0.03 -0.58,0.06c-0.1,0.01 -0.19,0.03 -0.29,0.05c-0.1,0.02 -0.19,0.04 -0.29,0.06c-0.1,0.02 -0.19,0.04 -0.29,0.07c-0.09,0.02 -0.19,0.05 -0.28,0.08c-0.09,0.03 -0.19,0.06 -0.28,0.1c-0.09,0.03 -0.18,0.07 -0.28,0.11c-0.09,0.04 -0.18,0.07 -0.27,0.11c-0.09,0.04 -0.18,0.08 -0.27,0.12c-0.09,0.05 -0.17,0.09 -0.26,0.14c-0.09,0.05 -0.17,0.1 -0.26,0.15c-0.08,0.05 -0.17,0.1 -0.25,0.16c-0.08,0.05 -0.16,0.11 -0.25,0.16c-0.08,0.06 -0.16,0.12 -0.23,0.18c-0.08,0.06 -0.15,0.12 -0.23,0.19c-0.07,0.06 -0.15,0.13 -0.22,0.2c-0.07,0.07 -0.14,0.13 -0.21,0.2c-0.14,0.14 -0.27,0.28 -0.4,0.43c-0.12,0.15 -0.24,0.31 -0.35,0.47c-0.11,0.16 -0.21,0.33 -0.3,0.5c-0.09,0.17 -0.18,0.35 -0.25,0.53l0,0.01c0,0.01 0,0.02 0,0.02c0,0.01 0.01,0.01 0.01,0.02c0.01,0 0.02,0.01 0.02,0c0.01,0 0.02,-0.01 0.02,-0.01c0.24,-0.28 0.49,-0.55 0.76,-0.81c0.27,-0.26 0.55,-0.5 0.84,-0.73c0.29,-0.23 0.59,-0.44 0.91,-0.64c0.31,-0.2 0.63,-0.38 0.97,-0.54c0.33,-0.16 0.67,-0.31 1.02,-0.44c0.35,-0.13 0.7,-0.24 1.05,-0.34c0.36,-0.1 0.72,-0.17 1.08,-0.24c0.36,-0.06 0.73,-0.1 1.1,-0.13z" />
	<path id="Layer" class="shp1" d="M2.14,23.28h1.52v-4.76h5.8v4.76h1.52v-10.41h-1.52v4.32h-5.8v-4.32h-1.52z" />
	<path id="Layer" class="shp1" d="M13.14,19.43c0.01,-0.12 0.03,-0.24 0.06,-0.36c0.03,-0.12 0.06,-0.24 0.1,-0.35c0.04,-0.12 0.08,-0.23 0.14,-0.34c0.05,-0.11 0.11,-0.22 0.17,-0.32c0.06,-0.1 0.13,-0.2 0.2,-0.3c0.07,-0.1 0.15,-0.19 0.23,-0.28c0.08,-0.09 0.16,-0.18 0.25,-0.26c0.09,-0.08 0.19,-0.16 0.29,-0.24c0.1,-0.08 0.2,-0.15 0.31,-0.21c0.11,-0.07 0.22,-0.13 0.33,-0.18c0.11,-0.06 0.23,-0.11 0.34,-0.15c0.25,-0.09 0.51,-0.17 0.77,-0.21c0.26,-0.05 0.53,-0.07 0.8,-0.07c0.27,0 0.53,0.02 0.8,0.07c0.26,0.05 0.52,0.12 0.77,0.21c0.12,0.04 0.23,0.1 0.34,0.15c0.11,0.06 0.22,0.12 0.33,0.18c0.11,0.07 0.21,0.14 0.31,0.21c0.1,0.08 0.2,0.16 0.29,0.24c0.09,0.08 0.17,0.17 0.25,0.26c0.08,0.09 0.16,0.18 0.23,0.28c0.07,0.1 0.14,0.2 0.2,0.3c0.06,0.1 0.12,0.21 0.17,0.32c0.05,0.11 0.1,0.23 0.14,0.34c0.04,0.12 0.07,0.23 0.1,0.35c0.03,0.12 0.05,0.24 0.06,0.36c0.01,0.12 0.02,0.24 0.02,0.37c0,0.12 -0.01,0.25 -0.02,0.37c-0.01,0.12 -0.03,0.24 -0.06,0.36c-0.03,0.12 -0.06,0.24 -0.1,0.36c-0.04,0.12 -0.08,0.23 -0.14,0.34c-0.05,0.11 -0.11,0.22 -0.17,0.32c-0.06,0.1 -0.13,0.21 -0.2,0.3c-0.07,0.1 -0.15,0.19 -0.23,0.28c-0.08,0.09 -0.17,0.18 -0.25,0.26c-0.09,0.08 -0.19,0.16 -0.29,0.24c-0.1,0.07 -0.2,0.14 -0.31,0.21c-0.11,0.07 -0.21,0.13 -0.33,0.18c-0.11,0.06 -0.23,0.11 -0.34,0.15c-0.25,0.09 -0.51,0.17 -0.77,0.21c-0.26,0.05 -0.53,0.07 -0.8,0.07c-0.27,0 -0.53,-0.02 -0.8,-0.07c-0.26,-0.05 -0.52,-0.12 -0.77,-0.21c-0.12,-0.04 -0.23,-0.09 -0.34,-0.15c-0.11,-0.06 -0.22,-0.12 -0.33,-0.18c-0.11,-0.07 -0.21,-0.14 -0.31,-0.21c-0.1,-0.07 -0.2,-0.15 -0.29,-0.24c-0.09,-0.08 -0.17,-0.17 -0.25,-0.26c-0.08,-0.09 -0.16,-0.18 -0.23,-0.28c-0.07,-0.1 -0.14,-0.2 -0.2,-0.3c-0.06,-0.1 -0.12,-0.21 -0.17,-0.32c-0.05,-0.11 -0.1,-0.23 -0.14,-0.34c-0.04,-0.12 -0.07,-0.24 -0.1,-0.36c-0.03,-0.12 -0.05,-0.24 -0.06,-0.36c-0.01,-0.12 -0.02,-0.25 -0.02,-0.37c0,-0.12 0,-0.25 0.02,-0.37zM14.65,20.05c0.01,0.08 0.02,0.17 0.03,0.25c0.01,0.08 0.03,0.16 0.06,0.24c0.02,0.08 0.05,0.16 0.08,0.24c0.03,0.07 0.06,0.14 0.09,0.21c0.03,0.07 0.07,0.13 0.11,0.2c0.04,0.06 0.09,0.13 0.13,0.19c0.05,0.06 0.1,0.12 0.15,0.17c0.06,0.05 0.11,0.11 0.17,0.15c0.06,0.05 0.12,0.09 0.19,0.14c0.07,0.04 0.13,0.08 0.2,0.12c0.07,0.04 0.14,0.07 0.21,0.09c0.16,0.06 0.33,0.11 0.51,0.14c0.17,0.03 0.35,0.05 0.52,0.05c0.17,0 0.35,-0.02 0.52,-0.05c0.17,-0.03 0.34,-0.08 0.51,-0.14c0.07,-0.03 0.14,-0.06 0.21,-0.09c0.07,-0.04 0.14,-0.07 0.2,-0.12c0.07,-0.04 0.13,-0.09 0.19,-0.14c0.06,-0.05 0.12,-0.1 0.17,-0.15c0.05,-0.05 0.1,-0.11 0.15,-0.17c0.05,-0.06 0.09,-0.12 0.13,-0.19c0.04,-0.06 0.08,-0.13 0.11,-0.2c0.03,-0.07 0.06,-0.14 0.09,-0.21c0.06,-0.16 0.1,-0.32 0.13,-0.48c0.03,-0.16 0.04,-0.33 0.04,-0.5c0,-0.17 -0.01,-0.33 -0.04,-0.5c-0.03,-0.16 -0.07,-0.32 -0.13,-0.48c-0.03,-0.07 -0.06,-0.14 -0.09,-0.21c-0.03,-0.07 -0.07,-0.13 -0.11,-0.2c-0.04,-0.06 -0.09,-0.13 -0.13,-0.19c-0.05,-0.06 -0.1,-0.12 -0.15,-0.17c-0.06,-0.05 -0.11,-0.11 -0.17,-0.15c-0.06,-0.05 -0.12,-0.09 -0.19,-0.14c-0.07,-0.04 -0.13,-0.08 -0.2,-0.12c-0.07,-0.04 -0.14,-0.07 -0.21,-0.09c-0.16,-0.06 -0.33,-0.11 -0.51,-0.14c-0.17,-0.03 -0.35,-0.05 -0.52,-0.05c-0.17,0 -0.35,0.02 -0.52,0.05c-0.17,0.03 -0.34,0.08 -0.51,0.14c-0.07,0.03 -0.14,0.06 -0.21,0.09c-0.07,0.04 -0.14,0.07 -0.2,0.12c-0.07,0.04 -0.13,0.09 -0.19,0.14c-0.06,0.05 -0.12,0.1 -0.17,0.15c-0.05,0.05 -0.1,0.11 -0.15,0.17c-0.05,0.06 -0.09,0.12 -0.13,0.19c-0.04,0.06 -0.08,0.13 -0.11,0.2c-0.03,0.07 -0.06,0.14 -0.09,0.21c-0.03,0.08 -0.06,0.16 -0.08,0.24c-0.02,0.08 -0.04,0.16 -0.06,0.24c-0.01,0.08 -0.03,0.16 -0.03,0.25c-0.01,0.08 -0.01,0.17 -0.01,0.25c0,0.08 0,0.17 0.01,0.25z" />
	<path id="Layer" class="shp1" d="M22.88,23.28h1.42l0,-3.62c0,-0.09 0,-0.17 0.01,-0.26c0.01,-0.09 0.02,-0.17 0.03,-0.26c0.01,-0.09 0.03,-0.17 0.05,-0.25c0.02,-0.08 0.05,-0.17 0.07,-0.25c0.02,-0.07 0.05,-0.13 0.08,-0.19c0.03,-0.06 0.06,-0.12 0.1,-0.18c0.04,-0.06 0.07,-0.12 0.12,-0.17c0.04,-0.06 0.09,-0.11 0.13,-0.16c0.04,-0.05 0.09,-0.09 0.14,-0.13c0.05,-0.04 0.1,-0.08 0.15,-0.11c0.05,-0.04 0.11,-0.07 0.16,-0.1c0.06,-0.03 0.11,-0.06 0.17,-0.08c0.06,-0.02 0.12,-0.04 0.18,-0.06c0.06,-0.02 0.12,-0.03 0.18,-0.04c0.06,-0.01 0.12,-0.02 0.19,-0.03c0.06,-0.01 0.13,-0.01 0.19,-0.01c0.07,0 0.14,0 0.21,0c0.07,0.01 0.14,0.02 0.21,0.03c0.07,0.01 0.14,0.03 0.21,0.06c0.07,0.02 0.13,0.05 0.2,0.08c0.05,0.03 0.1,0.06 0.14,0.09c0.05,0.03 0.09,0.07 0.13,0.11c0.04,0.04 0.08,0.08 0.11,0.13c0.03,0.05 0.06,0.09 0.09,0.14c0.03,0.06 0.06,0.11 0.08,0.17c0.02,0.06 0.05,0.12 0.06,0.18c0.02,0.06 0.03,0.12 0.05,0.18c0.01,0.06 0.02,0.12 0.03,0.19c0.01,0.08 0.02,0.15 0.03,0.23c0.01,0.08 0.01,0.15 0.02,0.23c0,0.08 0.01,0.15 0.01,0.23c0,0.08 0,0.15 0,0.23v3.65h1.42v-3.81c-0.01,-0.13 0,-0.27 0.02,-0.4c0.02,-0.13 0.04,-0.26 0.08,-0.39c0.04,-0.13 0.09,-0.25 0.14,-0.37c0.06,-0.12 0.13,-0.24 0.2,-0.35c0.09,-0.1 0.19,-0.2 0.3,-0.28c0.11,-0.08 0.23,-0.15 0.36,-0.2c0.13,-0.05 0.26,-0.09 0.4,-0.11c0.14,-0.02 0.27,-0.02 0.41,-0.01c0.07,0 0.14,0 0.22,0c0.07,0.01 0.14,0.02 0.21,0.03c0.07,0.01 0.14,0.03 0.21,0.06c0.07,0.02 0.14,0.05 0.2,0.08c0.05,0.03 0.1,0.05 0.14,0.09c0.05,0.03 0.09,0.07 0.13,0.1c0.04,0.04 0.08,0.08 0.12,0.12c0.04,0.04 0.07,0.09 0.1,0.14c0.03,0.05 0.06,0.1 0.08,0.15c0.02,0.05 0.05,0.11 0.07,0.16c0.02,0.05 0.04,0.11 0.05,0.17c0.01,0.06 0.02,0.11 0.03,0.17c0.01,0.06 0.02,0.13 0.02,0.19c0.01,0.06 0.01,0.13 0.02,0.19c0,0.06 0.01,0.13 0.01,0.19c0,0.06 0,0.13 0,0.19v3.88h1.42v-4.06c0,-0.1 0,-0.19 -0.01,-0.29c0,-0.1 -0.01,-0.19 -0.02,-0.29c-0.01,-0.1 -0.02,-0.19 -0.04,-0.28c-0.01,-0.09 -0.03,-0.19 -0.05,-0.28c-0.02,-0.09 -0.04,-0.18 -0.07,-0.26c-0.03,-0.09 -0.06,-0.17 -0.1,-0.25c-0.04,-0.08 -0.08,-0.16 -0.12,-0.24c-0.05,-0.08 -0.09,-0.15 -0.15,-0.23c-0.06,-0.08 -0.12,-0.15 -0.18,-0.21c-0.07,-0.07 -0.13,-0.13 -0.21,-0.19c-0.07,-0.06 -0.15,-0.11 -0.23,-0.16c-0.08,-0.05 -0.16,-0.09 -0.25,-0.13c-0.11,-0.05 -0.23,-0.09 -0.34,-0.12c-0.12,-0.04 -0.23,-0.06 -0.35,-0.09c-0.12,-0.02 -0.24,-0.04 -0.36,-0.05c-0.12,-0.01 -0.24,-0.01 -0.36,-0.01c-0.12,0 -0.23,0.01 -0.35,0.02c-0.12,0.01 -0.23,0.03 -0.34,0.06c-0.11,0.03 -0.22,0.06 -0.33,0.1c-0.11,0.04 -0.22,0.09 -0.32,0.14c-0.11,0.05 -0.21,0.11 -0.31,0.18c-0.1,0.07 -0.19,0.14 -0.28,0.23c-0.09,0.08 -0.17,0.17 -0.24,0.27c-0.07,0.09 -0.14,0.19 -0.2,0.3c-0.05,-0.1 -0.11,-0.2 -0.18,-0.29c-0.07,-0.09 -0.14,-0.18 -0.22,-0.26c-0.08,-0.08 -0.16,-0.16 -0.25,-0.23c-0.09,-0.07 -0.18,-0.13 -0.28,-0.19c-0.11,-0.06 -0.22,-0.11 -0.33,-0.15c-0.11,-0.04 -0.23,-0.08 -0.35,-0.1c-0.12,-0.03 -0.24,-0.05 -0.36,-0.06c-0.12,-0.01 -0.24,-0.02 -0.36,-0.01c-0.08,0 -0.16,0 -0.23,0.01c-0.08,0.01 -0.16,0.01 -0.23,0.03c-0.08,0.01 -0.15,0.03 -0.23,0.04c-0.08,0.02 -0.15,0.04 -0.23,0.06c-0.06,0.02 -0.13,0.04 -0.19,0.07c-0.06,0.02 -0.12,0.05 -0.18,0.08c-0.06,0.03 -0.12,0.06 -0.18,0.09c-0.06,0.03 -0.12,0.07 -0.17,0.1c-0.05,0.03 -0.09,0.06 -0.14,0.09c-0.04,0.03 -0.09,0.07 -0.13,0.1c-0.04,0.04 -0.08,0.07 -0.12,0.11c-0.04,0.04 -0.08,0.08 -0.12,0.12c-0.03,0.03 -0.05,0.05 -0.07,0.08c-0.02,0.03 -0.05,0.06 -0.07,0.09c-0.02,0.03 -0.04,0.06 -0.06,0.1c-0.02,0.03 -0.03,0.07 -0.05,0.1h-0.03v-1.09h-1.33z" />
	<path id="Layer" class="shp1" d="M36,19.43c0.01,-0.12 0.03,-0.24 0.06,-0.36c0.03,-0.12 0.06,-0.24 0.1,-0.35c0.04,-0.12 0.08,-0.23 0.14,-0.34c0.05,-0.11 0.11,-0.22 0.17,-0.32c0.06,-0.1 0.13,-0.2 0.2,-0.3c0.07,-0.1 0.15,-0.19 0.23,-0.28c0.08,-0.09 0.16,-0.18 0.25,-0.26c0.09,-0.08 0.19,-0.16 0.29,-0.24c0.1,-0.08 0.2,-0.15 0.31,-0.21c0.11,-0.07 0.22,-0.13 0.33,-0.18c0.11,-0.06 0.23,-0.11 0.34,-0.15c0.25,-0.09 0.51,-0.17 0.77,-0.21c0.26,-0.05 0.53,-0.07 0.8,-0.07c0.27,0 0.53,0.02 0.8,0.07c0.26,0.05 0.52,0.12 0.77,0.21c0.12,0.04 0.23,0.1 0.34,0.15c0.11,0.06 0.22,0.12 0.33,0.18c0.11,0.07 0.21,0.14 0.31,0.21c0.1,0.08 0.2,0.16 0.29,0.24c0.09,0.08 0.17,0.17 0.25,0.26c0.08,0.09 0.16,0.18 0.23,0.28c0.07,0.1 0.14,0.2 0.2,0.3c0.06,0.1 0.12,0.21 0.17,0.32c0.05,0.11 0.1,0.23 0.14,0.34c0.04,0.12 0.07,0.23 0.1,0.35c0.03,0.12 0.05,0.24 0.06,0.36c0.01,0.12 0.02,0.24 0.02,0.37c0,0.12 -0.01,0.25 -0.02,0.37c-0.01,0.12 -0.03,0.24 -0.06,0.36c-0.03,0.12 -0.06,0.24 -0.1,0.36c-0.04,0.12 -0.08,0.23 -0.14,0.34c-0.05,0.11 -0.11,0.22 -0.17,0.32c-0.06,0.1 -0.13,0.21 -0.2,0.3c-0.07,0.1 -0.15,0.19 -0.23,0.28c-0.08,0.09 -0.17,0.18 -0.25,0.26c-0.09,0.08 -0.19,0.16 -0.29,0.24c-0.1,0.07 -0.2,0.14 -0.31,0.21c-0.11,0.07 -0.21,0.13 -0.33,0.18c-0.11,0.06 -0.23,0.11 -0.34,0.15c-0.25,0.09 -0.51,0.17 -0.77,0.21c-0.26,0.05 -0.53,0.07 -0.8,0.07c-0.27,0 -0.53,-0.02 -0.8,-0.07c-0.26,-0.05 -0.52,-0.12 -0.77,-0.21c-0.12,-0.04 -0.23,-0.09 -0.34,-0.15c-0.11,-0.06 -0.22,-0.12 -0.33,-0.18c-0.11,-0.07 -0.21,-0.14 -0.31,-0.21c-0.1,-0.07 -0.2,-0.15 -0.29,-0.24c-0.09,-0.08 -0.17,-0.17 -0.25,-0.26c-0.08,-0.09 -0.16,-0.18 -0.23,-0.28c-0.07,-0.1 -0.14,-0.2 -0.2,-0.3c-0.06,-0.1 -0.12,-0.21 -0.17,-0.32c-0.05,-0.11 -0.1,-0.23 -0.14,-0.34c-0.04,-0.12 -0.07,-0.24 -0.1,-0.36c-0.03,-0.12 -0.05,-0.24 -0.06,-0.36c-0.01,-0.12 -0.02,-0.25 -0.02,-0.37c0,-0.12 0,-0.25 0.02,-0.37zM37.51,20.05c0.01,0.08 0.02,0.17 0.03,0.25c0.01,0.08 0.03,0.16 0.06,0.24c0.02,0.08 0.05,0.16 0.08,0.24c0.03,0.07 0.06,0.14 0.09,0.21c0.03,0.07 0.07,0.13 0.11,0.2c0.04,0.06 0.09,0.13 0.13,0.19c0.05,0.06 0.1,0.12 0.15,0.17c0.06,0.05 0.11,0.11 0.17,0.15c0.06,0.05 0.12,0.09 0.19,0.14c0.07,0.04 0.13,0.08 0.2,0.12c0.07,0.04 0.14,0.07 0.21,0.09c0.16,0.06 0.33,0.11 0.51,0.14c0.17,0.03 0.35,0.05 0.52,0.05c0.17,0 0.35,-0.02 0.52,-0.05c0.17,-0.03 0.34,-0.08 0.51,-0.14c0.07,-0.03 0.14,-0.06 0.21,-0.09c0.07,-0.04 0.14,-0.07 0.2,-0.12c0.07,-0.04 0.13,-0.09 0.19,-0.14c0.06,-0.05 0.12,-0.1 0.17,-0.15c0.05,-0.05 0.1,-0.11 0.15,-0.17c0.05,-0.06 0.09,-0.12 0.13,-0.19c0.04,-0.06 0.08,-0.13 0.11,-0.2c0.03,-0.07 0.06,-0.14 0.09,-0.21c0.06,-0.16 0.1,-0.32 0.13,-0.48c0.03,-0.16 0.04,-0.33 0.04,-0.5c0,-0.17 -0.01,-0.33 -0.04,-0.5c-0.03,-0.16 -0.07,-0.32 -0.13,-0.48c-0.03,-0.07 -0.06,-0.14 -0.09,-0.21c-0.03,-0.07 -0.07,-0.13 -0.11,-0.2c-0.04,-0.06 -0.09,-0.13 -0.13,-0.19c-0.05,-0.06 -0.1,-0.12 -0.15,-0.17c-0.06,-0.05 -0.11,-0.11 -0.17,-0.15c-0.06,-0.05 -0.12,-0.09 -0.19,-0.14c-0.07,-0.04 -0.13,-0.08 -0.2,-0.12c-0.07,-0.04 -0.14,-0.07 -0.21,-0.09c-0.16,-0.06 -0.33,-0.11 -0.51,-0.14c-0.17,-0.03 -0.35,-0.05 -0.52,-0.05c-0.17,0 -0.35,0.02 -0.52,0.05c-0.17,0.03 -0.34,0.08 -0.51,0.14c-0.07,0.03 -0.14,0.06 -0.21,0.09c-0.07,0.04 -0.14,0.07 -0.2,0.12c-0.07,0.04 -0.13,0.09 -0.19,0.14c-0.06,0.05 -0.12,0.1 -0.17,0.15c-0.05,0.05 -0.1,0.11 -0.15,0.17c-0.05,0.06 -0.09,0.12 -0.13,0.19c-0.04,0.06 -0.08,0.13 -0.11,0.2c-0.03,0.07 -0.06,0.14 -0.09,0.21c-0.03,0.08 -0.06,0.16 -0.08,0.24c-0.02,0.08 -0.04,0.16 -0.06,0.24c-0.01,0.08 -0.03,0.16 -0.03,0.25c-0.01,0.08 -0.01,0.17 -0.01,0.25c0,0.08 0,0.17 0.01,0.25z" />
	<path id="Layer" class="shp1" d="M46.81,20.28c0,0.07 0,0.14 0.01,0.22c0.01,0.07 0.02,0.14 0.04,0.21c0.02,0.07 0.04,0.14 0.07,0.21c0.03,0.07 0.06,0.13 0.09,0.2c0.04,0.06 0.07,0.12 0.12,0.18c0.04,0.06 0.09,0.11 0.13,0.17c0.05,0.05 0.1,0.1 0.15,0.15c0.05,0.05 0.11,0.09 0.16,0.14c0.06,0.05 0.12,0.09 0.19,0.13c0.06,0.04 0.13,0.08 0.2,0.11c0.07,0.03 0.14,0.07 0.21,0.09c0.07,0.03 0.14,0.05 0.21,0.08c0.08,0.02 0.15,0.05 0.23,0.06c0.08,0.02 0.16,0.03 0.24,0.05c0.08,0.01 0.16,0.02 0.24,0.03c0.08,0.01 0.16,0.01 0.24,0.01c0.1,0 0.2,0 0.3,-0.01c0.1,-0.01 0.2,-0.03 0.3,-0.05c0.1,-0.02 0.19,-0.05 0.29,-0.09c0.09,-0.04 0.18,-0.08 0.27,-0.13c0.08,-0.05 0.17,-0.1 0.25,-0.16c0.08,-0.06 0.16,-0.12 0.23,-0.18c0.08,-0.06 0.15,-0.13 0.22,-0.2c0.07,-0.07 0.14,-0.14 0.2,-0.22l1.08,0.76c-0.2,0.24 -0.43,0.45 -0.68,0.64c-0.25,0.19 -0.52,0.34 -0.81,0.46c-0.29,0.12 -0.59,0.21 -0.89,0.27c-0.31,0.05 -0.62,0.07 -0.93,0.06c-0.14,0 -0.27,0 -0.41,-0.01c-0.14,-0.01 -0.27,-0.03 -0.41,-0.05c-0.13,-0.02 -0.27,-0.05 -0.4,-0.09c-0.13,-0.04 -0.26,-0.08 -0.39,-0.13c-0.11,-0.04 -0.22,-0.09 -0.33,-0.14c-0.11,-0.05 -0.21,-0.11 -0.32,-0.18c-0.1,-0.06 -0.2,-0.13 -0.3,-0.21c-0.09,-0.08 -0.19,-0.15 -0.27,-0.24c-0.08,-0.08 -0.16,-0.17 -0.24,-0.26c-0.07,-0.09 -0.14,-0.18 -0.21,-0.28c-0.06,-0.1 -0.12,-0.2 -0.18,-0.3c-0.05,-0.1 -0.1,-0.21 -0.15,-0.32c-0.05,-0.11 -0.09,-0.23 -0.12,-0.35c-0.03,-0.12 -0.06,-0.24 -0.09,-0.36c-0.02,-0.12 -0.04,-0.24 -0.05,-0.37c-0.01,-0.12 -0.02,-0.25 -0.01,-0.37c0,-0.24 0.02,-0.49 0.07,-0.72c0.05,-0.24 0.12,-0.47 0.21,-0.69c0.09,-0.22 0.21,-0.44 0.35,-0.64c0.14,-0.2 0.3,-0.39 0.47,-0.55c0.09,-0.08 0.18,-0.16 0.28,-0.24c0.1,-0.07 0.2,-0.14 0.3,-0.21c0.1,-0.06 0.21,-0.12 0.32,-0.18c0.11,-0.05 0.22,-0.1 0.33,-0.15c0.12,-0.05 0.25,-0.09 0.38,-0.12c0.13,-0.04 0.26,-0.07 0.39,-0.09c0.13,-0.02 0.26,-0.04 0.39,-0.05c0.13,-0.01 0.26,-0.02 0.4,-0.01c0.14,0 0.29,0 0.43,0.01c0.14,0.01 0.29,0.03 0.43,0.06c0.14,0.03 0.28,0.06 0.42,0.1c0.14,0.04 0.27,0.09 0.41,0.15c0.11,0.05 0.21,0.1 0.32,0.16c0.1,0.06 0.2,0.13 0.3,0.2c0.09,0.07 0.19,0.15 0.27,0.23c0.09,0.08 0.17,0.17 0.25,0.26c0.07,0.09 0.14,0.17 0.2,0.27c0.06,0.09 0.12,0.19 0.18,0.29c0.05,0.1 0.1,0.2 0.15,0.3c0.04,0.1 0.08,0.21 0.11,0.32c0.03,0.11 0.06,0.22 0.09,0.33c0.02,0.11 0.05,0.22 0.06,0.33c0.02,0.11 0.03,0.22 0.04,0.34c0.01,0.11 0.01,0.22 0.01,0.34v0.47zM51.3,19.22c0,-0.07 -0.01,-0.14 -0.01,-0.21c-0.01,-0.07 -0.02,-0.14 -0.03,-0.2c-0.01,-0.07 -0.03,-0.13 -0.05,-0.2c-0.02,-0.07 -0.04,-0.13 -0.06,-0.2c-0.02,-0.06 -0.05,-0.12 -0.07,-0.18c-0.03,-0.06 -0.06,-0.11 -0.09,-0.17c-0.03,-0.05 -0.07,-0.11 -0.11,-0.16c-0.04,-0.05 -0.08,-0.1 -0.13,-0.14c-0.05,-0.05 -0.1,-0.09 -0.15,-0.13c-0.05,-0.04 -0.11,-0.08 -0.16,-0.12c-0.06,-0.04 -0.11,-0.07 -0.17,-0.1c-0.06,-0.03 -0.12,-0.06 -0.18,-0.08c-0.08,-0.03 -0.15,-0.05 -0.23,-0.07c-0.08,-0.02 -0.16,-0.04 -0.23,-0.05c-0.08,-0.01 -0.16,-0.02 -0.24,-0.03c-0.08,-0.01 -0.16,-0.01 -0.24,-0.01c-0.08,0 -0.16,0 -0.24,0.01c-0.08,0.01 -0.16,0.02 -0.24,0.03c-0.08,0.02 -0.16,0.03 -0.24,0.06c-0.08,0.02 -0.16,0.05 -0.23,0.08c-0.07,0.03 -0.13,0.06 -0.2,0.09c-0.07,0.03 -0.13,0.07 -0.19,0.11c-0.06,0.04 -0.12,0.08 -0.18,0.13c-0.06,0.05 -0.11,0.09 -0.17,0.14c-0.05,0.05 -0.09,0.1 -0.14,0.15c-0.04,0.05 -0.09,0.1 -0.12,0.16c-0.04,0.05 -0.08,0.11 -0.11,0.17c-0.03,0.06 -0.07,0.12 -0.09,0.18c-0.03,0.06 -0.05,0.11 -0.07,0.17c-0.02,0.06 -0.04,0.12 -0.05,0.18c-0.01,0.06 -0.02,0.12 -0.03,0.18c-0.01,0.06 -0.01,0.12 -0.01,0.18z" />
	<path id="Layer" class="shp1" d="M54.18,19.43c0.01,-0.12 0.03,-0.24 0.06,-0.36c0.03,-0.12 0.06,-0.24 0.1,-0.35c0.04,-0.12 0.08,-0.23 0.14,-0.34c0.05,-0.11 0.11,-0.22 0.17,-0.32c0.06,-0.1 0.13,-0.2 0.2,-0.3c0.07,-0.1 0.15,-0.19 0.23,-0.28c0.08,-0.09 0.16,-0.18 0.25,-0.26c0.09,-0.08 0.19,-0.16 0.29,-0.24c0.1,-0.08 0.2,-0.15 0.31,-0.21c0.11,-0.07 0.22,-0.13 0.33,-0.18c0.11,-0.06 0.23,-0.11 0.34,-0.15c0.25,-0.09 0.51,-0.17 0.77,-0.21c0.26,-0.05 0.53,-0.07 0.8,-0.07c0.27,0 0.53,0.02 0.8,0.07c0.26,0.05 0.52,0.12 0.77,0.21c0.12,0.04 0.23,0.1 0.34,0.15c0.11,0.06 0.22,0.12 0.33,0.18c0.11,0.07 0.21,0.14 0.31,0.21c0.1,0.08 0.2,0.16 0.29,0.24c0.09,0.08 0.17,0.17 0.25,0.26c0.08,0.09 0.16,0.18 0.23,0.28c0.07,0.1 0.14,0.2 0.2,0.3c0.06,0.1 0.12,0.21 0.17,0.32c0.05,0.11 0.1,0.23 0.14,0.34c0.04,0.12 0.07,0.23 0.1,0.35c0.03,0.12 0.05,0.24 0.06,0.36c0.01,0.12 0.02,0.24 0.02,0.37c0,0.12 -0.01,0.25 -0.02,0.37c-0.01,0.12 -0.03,0.24 -0.06,0.36c-0.03,0.12 -0.06,0.24 -0.1,0.36c-0.04,0.12 -0.08,0.23 -0.14,0.34c-0.05,0.11 -0.11,0.22 -0.17,0.32c-0.06,0.1 -0.13,0.21 -0.2,0.3c-0.07,0.1 -0.15,0.19 -0.23,0.28c-0.08,0.09 -0.17,0.18 -0.25,0.26c-0.09,0.08 -0.19,0.16 -0.29,0.24c-0.1,0.07 -0.2,0.14 -0.31,0.21c-0.11,0.07 -0.21,0.13 -0.33,0.18c-0.11,0.06 -0.23,0.11 -0.34,0.15c-0.25,0.09 -0.51,0.17 -0.77,0.21c-0.26,0.05 -0.53,0.07 -0.8,0.07c-0.27,0 -0.53,-0.02 -0.8,-0.07c-0.26,-0.05 -0.52,-0.12 -0.77,-0.21c-0.12,-0.04 -0.23,-0.09 -0.34,-0.15c-0.11,-0.06 -0.22,-0.12 -0.33,-0.18c-0.11,-0.07 -0.21,-0.14 -0.31,-0.21c-0.1,-0.07 -0.2,-0.15 -0.29,-0.24c-0.09,-0.08 -0.17,-0.17 -0.25,-0.26c-0.08,-0.09 -0.16,-0.18 -0.23,-0.28c-0.07,-0.1 -0.14,-0.2 -0.2,-0.3c-0.06,-0.1 -0.12,-0.21 -0.17,-0.32c-0.05,-0.11 -0.1,-0.23 -0.14,-0.34c-0.04,-0.12 -0.07,-0.24 -0.1,-0.36c-0.03,-0.12 -0.05,-0.24 -0.06,-0.36c-0.01,-0.12 -0.02,-0.25 -0.02,-0.37c0,-0.12 0,-0.25 0.02,-0.37zM55.69,20.05c0.01,0.08 0.02,0.17 0.03,0.25c0.01,0.08 0.03,0.16 0.06,0.24c0.02,0.08 0.05,0.16 0.08,0.24c0.03,0.07 0.06,0.14 0.09,0.21c0.03,0.07 0.07,0.13 0.11,0.2c0.04,0.06 0.09,0.13 0.13,0.19c0.05,0.06 0.1,0.12 0.15,0.17c0.06,0.05 0.11,0.11 0.17,0.15c0.06,0.05 0.12,0.09 0.19,0.14c0.07,0.04 0.13,0.08 0.2,0.12c0.07,0.04 0.14,0.07 0.21,0.09c0.16,0.06 0.33,0.11 0.51,0.14c0.17,0.03 0.35,0.05 0.52,0.05c0.17,0 0.35,-0.02 0.52,-0.05c0.17,-0.03 0.34,-0.08 0.51,-0.14c0.07,-0.03 0.14,-0.06 0.21,-0.09c0.07,-0.04 0.14,-0.07 0.2,-0.12c0.07,-0.04 0.13,-0.09 0.19,-0.14c0.06,-0.05 0.12,-0.1 0.17,-0.15c0.05,-0.05 0.1,-0.11 0.15,-0.17c0.05,-0.06 0.09,-0.12 0.13,-0.19c0.04,-0.06 0.08,-0.13 0.11,-0.2c0.03,-0.07 0.06,-0.14 0.09,-0.21c0.06,-0.16 0.1,-0.32 0.13,-0.48c0.03,-0.16 0.04,-0.33 0.04,-0.5c0,-0.17 -0.01,-0.33 -0.04,-0.5c-0.03,-0.16 -0.07,-0.32 -0.13,-0.48c-0.03,-0.07 -0.06,-0.14 -0.09,-0.21c-0.03,-0.07 -0.07,-0.13 -0.11,-0.2c-0.04,-0.06 -0.09,-0.13 -0.13,-0.19c-0.05,-0.06 -0.1,-0.12 -0.15,-0.17c-0.06,-0.05 -0.11,-0.11 -0.17,-0.15c-0.06,-0.05 -0.12,-0.09 -0.19,-0.14c-0.07,-0.04 -0.13,-0.08 -0.2,-0.12c-0.07,-0.04 -0.14,-0.07 -0.21,-0.09c-0.16,-0.06 -0.33,-0.11 -0.51,-0.14c-0.17,-0.03 -0.35,-0.05 -0.52,-0.05c-0.17,0 -0.35,0.02 -0.52,0.05c-0.17,0.03 -0.34,0.08 -0.51,0.14c-0.07,0.03 -0.14,0.06 -0.21,0.09c-0.07,0.04 -0.14,0.07 -0.2,0.12c-0.07,0.04 -0.13,0.09 -0.19,0.14c-0.06,0.05 -0.12,0.1 -0.17,0.15c-0.05,0.05 -0.1,0.11 -0.15,0.17c-0.05,0.06 -0.09,0.12 -0.13,0.19c-0.04,0.06 -0.08,0.13 -0.11,0.2c-0.03,0.07 -0.06,0.14 -0.09,0.21c-0.03,0.08 -0.06,0.16 -0.08,0.24c-0.02,0.08 -0.04,0.16 -0.06,0.24c-0.01,0.08 -0.03,0.16 -0.03,0.25c-0.01,0.08 -0.01,0.17 -0.01,0.25c0,0.08 0,0.17 0.01,0.25z" />
	<path id="Layer" class="shp1" d="M68.05,27.47c-0.12,-0.14 -0.25,-0.28 -0.38,-0.4c-0.14,-0.13 -0.28,-0.24 -0.43,-0.35c-0.15,-0.11 -0.31,-0.2 -0.47,-0.29c-0.16,-0.08 -0.33,-0.16 -0.51,-0.22c-0.18,-0.07 -0.36,-0.13 -0.54,-0.18c-0.18,-0.05 -0.37,-0.09 -0.56,-0.13c-0.19,-0.03 -0.38,-0.06 -0.57,-0.08c-0.19,-0.02 -0.38,-0.03 -0.57,-0.03c-0.21,0 -0.42,0 -0.62,0.02c-0.21,0.02 -0.41,0.04 -0.62,0.08c-0.2,0.04 -0.41,0.08 -0.61,0.13c-0.2,0.05 -0.4,0.12 -0.59,0.19c-0.18,0.07 -0.35,0.14 -0.52,0.22c-0.17,0.08 -0.33,0.17 -0.49,0.27c-0.16,0.1 -0.31,0.21 -0.46,0.32c-0.15,0.12 -0.29,0.24 -0.43,0.37c-0.13,0.13 -0.26,0.26 -0.38,0.4c-0.12,0.14 -0.23,0.29 -0.33,0.44c-0.1,0.15 -0.2,0.31 -0.29,0.47c-0.09,0.16 -0.17,0.33 -0.24,0.5c-0.07,0.18 -0.14,0.37 -0.2,0.55c-0.06,0.19 -0.1,0.38 -0.14,0.57c-0.04,0.19 -0.06,0.39 -0.08,0.58c-0.02,0.19 -0.03,0.39 -0.02,0.59c0,0.17 0.01,0.34 0.03,0.51c0.02,0.17 0.04,0.34 0.08,0.51c0.03,0.17 0.08,0.33 0.13,0.5c0.05,0.16 0.11,0.33 0.18,0.48c0.07,0.17 0.14,0.33 0.23,0.49c0.08,0.16 0.18,0.31 0.27,0.46c0.1,0.15 0.21,0.29 0.32,0.43c0.11,0.14 0.23,0.27 0.36,0.4c0.13,0.13 0.27,0.26 0.42,0.38c0.15,0.12 0.3,0.24 0.45,0.34c0.16,0.11 0.32,0.21 0.49,0.3c0.17,0.09 0.34,0.17 0.51,0.25c0.19,0.08 0.39,0.16 0.59,0.22c0.2,0.06 0.41,0.11 0.61,0.15c0.21,0.04 0.42,0.07 0.63,0.09c0.21,0.02 0.42,0.03 0.63,0.02c0.15,0 0.3,0 0.44,-0.01c0.15,-0.01 0.29,-0.02 0.44,-0.04c0.15,-0.02 0.29,-0.04 0.44,-0.08c0.14,-0.03 0.29,-0.07 0.43,-0.11c0.11,-0.03 0.22,-0.07 0.33,-0.11c0.11,-0.04 0.22,-0.08 0.33,-0.13c0.11,-0.05 0.21,-0.09 0.32,-0.15c0.11,-0.05 0.21,-0.11 0.31,-0.16c0.08,-0.04 0.15,-0.09 0.23,-0.14c0.07,-0.05 0.15,-0.1 0.22,-0.15c0.07,-0.05 0.14,-0.11 0.21,-0.16c0.07,-0.06 0.14,-0.11 0.2,-0.17c0.04,-0.04 0.08,-0.07 0.12,-0.11c0.04,-0.04 0.08,-0.08 0.12,-0.12c0.04,-0.04 0.08,-0.08 0.11,-0.12c0.04,-0.04 0.07,-0.08 0.11,-0.12l-1.32,-0.92c-0.08,0.11 -0.17,0.22 -0.27,0.32c-0.1,0.1 -0.2,0.2 -0.3,0.28c-0.11,0.09 -0.22,0.17 -0.33,0.25c-0.12,0.08 -0.24,0.15 -0.36,0.21c-0.13,0.07 -0.27,0.12 -0.42,0.17c-0.14,0.05 -0.29,0.09 -0.43,0.12c-0.15,0.03 -0.29,0.06 -0.44,0.07c-0.15,0.01 -0.3,0.02 -0.45,0.02c-0.15,0 -0.31,0 -0.46,-0.02c-0.15,-0.01 -0.31,-0.03 -0.46,-0.06c-0.15,-0.03 -0.3,-0.06 -0.45,-0.11c-0.15,-0.04 -0.29,-0.09 -0.44,-0.15c-0.25,-0.1 -0.49,-0.23 -0.71,-0.38c-0.22,-0.15 -0.43,-0.32 -0.62,-0.51c-0.19,-0.19 -0.36,-0.4 -0.5,-0.63c-0.15,-0.23 -0.27,-0.47 -0.36,-0.72c-0.05,-0.13 -0.09,-0.26 -0.13,-0.39c-0.04,-0.13 -0.07,-0.26 -0.09,-0.4c-0.02,-0.13 -0.04,-0.27 -0.05,-0.41c-0.01,-0.14 -0.02,-0.27 -0.02,-0.41c0,-0.15 0,-0.29 0.02,-0.43c0.01,-0.14 0.03,-0.29 0.06,-0.43c0.03,-0.14 0.06,-0.28 0.1,-0.42c0.04,-0.14 0.08,-0.28 0.14,-0.41c0.05,-0.13 0.1,-0.25 0.17,-0.38c0.06,-0.12 0.13,-0.24 0.2,-0.36c0.07,-0.12 0.15,-0.23 0.24,-0.34c0.08,-0.11 0.17,-0.21 0.27,-0.31c0.1,-0.1 0.2,-0.19 0.3,-0.28c0.1,-0.09 0.21,-0.17 0.33,-0.25c0.11,-0.08 0.23,-0.15 0.35,-0.22c0.12,-0.07 0.24,-0.13 0.37,-0.18c0.14,-0.06 0.28,-0.11 0.43,-0.15c0.14,-0.04 0.29,-0.08 0.44,-0.11c0.15,-0.03 0.3,-0.05 0.45,-0.06c0.15,-0.01 0.3,-0.02 0.45,-0.02c0.13,0 0.26,0.01 0.4,0.02c0.13,0.01 0.26,0.03 0.39,0.06c0.13,0.03 0.26,0.06 0.38,0.1c0.13,0.04 0.25,0.09 0.37,0.14c0.12,0.05 0.24,0.11 0.35,0.17c0.11,0.06 0.22,0.13 0.33,0.21c0.1,0.08 0.2,0.16 0.3,0.25c0.09,0.09 0.18,0.18 0.27,0.28z" />
	<path id="Layer" class="shp1" d="M69.92,36.78h1.46v-11.44h-1.46z" />
	<path id="Layer" class="shp1" d="M73.51,27.24c0.01,0.06 0.03,0.13 0.06,0.19c0.03,0.06 0.06,0.12 0.1,0.17c0.04,0.05 0.08,0.1 0.13,0.15c0.1,0.09 0.22,0.17 0.35,0.22c0.13,0.05 0.27,0.08 0.41,0.08c0.14,0 0.28,-0.03 0.41,-0.08c0.13,-0.05 0.25,-0.12 0.35,-0.22c0.1,-0.09 0.18,-0.2 0.23,-0.32c0.05,-0.12 0.08,-0.25 0.08,-0.39c0,-0.13 -0.03,-0.26 -0.08,-0.39c-0.05,-0.12 -0.13,-0.23 -0.23,-0.32c-0.1,-0.09 -0.22,-0.17 -0.35,-0.22c-0.13,-0.05 -0.27,-0.08 -0.41,-0.08c-0.14,0 -0.28,0.03 -0.41,0.08c-0.13,0.05 -0.25,0.12 -0.35,0.22c-0.05,0.04 -0.1,0.09 -0.13,0.15c-0.04,0.05 -0.07,0.11 -0.1,0.17c-0.03,0.06 -0.05,0.12 -0.06,0.19c-0.01,0.06 -0.02,0.13 -0.02,0.2c0,0.07 0.01,0.13 0.02,0.2zM73.83,36.78h1.46v-7.17h-1.46z" />
	<path id="Layer" class="shp1" d="M77.62,36.78h1.46v-3.69c0,-0.09 0,-0.18 0.01,-0.27c0.01,-0.09 0.02,-0.18 0.03,-0.27c0.01,-0.09 0.03,-0.18 0.05,-0.27c0.02,-0.09 0.05,-0.18 0.07,-0.26c0.02,-0.07 0.05,-0.14 0.08,-0.2c0.03,-0.07 0.07,-0.13 0.1,-0.19c0.04,-0.06 0.08,-0.12 0.12,-0.18c0.04,-0.06 0.09,-0.11 0.14,-0.17c0.05,-0.05 0.1,-0.09 0.15,-0.14c0.05,-0.04 0.11,-0.08 0.17,-0.12c0.06,-0.04 0.12,-0.07 0.18,-0.1c0.06,-0.03 0.12,-0.06 0.19,-0.08c0.07,-0.02 0.14,-0.04 0.21,-0.06c0.07,-0.02 0.14,-0.03 0.21,-0.04c0.07,-0.01 0.14,-0.02 0.21,-0.03c0.07,-0.01 0.14,-0.01 0.22,-0.01c0.06,0 0.11,0 0.17,0.01c0.06,0 0.11,0.01 0.17,0.02c0.06,0.01 0.11,0.02 0.16,0.03c0.05,0.01 0.11,0.03 0.16,0.04c0.05,0.02 0.1,0.03 0.15,0.06c0.05,0.02 0.1,0.05 0.15,0.07c0.05,0.03 0.09,0.06 0.14,0.09c0.04,0.03 0.09,0.07 0.13,0.1c0.04,0.04 0.08,0.08 0.12,0.13c0.04,0.04 0.07,0.09 0.11,0.14c0.03,0.05 0.06,0.1 0.09,0.15c0.03,0.05 0.05,0.1 0.07,0.16c0.03,0.07 0.05,0.14 0.07,0.21c0.02,0.07 0.03,0.14 0.05,0.21c0.01,0.07 0.02,0.14 0.03,0.22c0.01,0.07 0.01,0.15 0.01,0.22v4.24h1.46v-4.61c0,-0.11 0,-0.21 -0.01,-0.32c-0.01,-0.1 -0.02,-0.21 -0.04,-0.31c-0.02,-0.1 -0.04,-0.21 -0.07,-0.31c-0.03,-0.1 -0.06,-0.2 -0.1,-0.3c-0.03,-0.08 -0.07,-0.16 -0.12,-0.24c-0.04,-0.08 -0.09,-0.15 -0.14,-0.22c-0.05,-0.07 -0.11,-0.14 -0.17,-0.21c-0.06,-0.07 -0.12,-0.13 -0.19,-0.19c-0.07,-0.06 -0.13,-0.11 -0.2,-0.16c-0.07,-0.05 -0.14,-0.09 -0.22,-0.14c-0.08,-0.04 -0.15,-0.08 -0.23,-0.11c-0.08,-0.03 -0.16,-0.06 -0.24,-0.09c-0.09,-0.03 -0.17,-0.05 -0.26,-0.07c-0.09,-0.02 -0.18,-0.04 -0.27,-0.05c-0.09,-0.01 -0.18,-0.02 -0.27,-0.03c-0.09,-0.01 -0.18,-0.01 -0.27,-0.01c-0.14,0 -0.27,0 -0.41,0.02c-0.14,0.01 -0.27,0.04 -0.4,0.07c-0.13,0.03 -0.26,0.07 -0.39,0.11c-0.13,0.05 -0.25,0.1 -0.38,0.16c-0.1,0.05 -0.2,0.11 -0.29,0.17c-0.09,0.06 -0.18,0.14 -0.26,0.22c-0.08,0.08 -0.16,0.16 -0.22,0.26c-0.07,0.09 -0.13,0.19 -0.18,0.29h-0.03v-1.1h-1.46z" />
	<path id="Layer" class="shp1" d="M86.44,27.04c0,0.07 0.01,0.13 0.02,0.2c0.01,0.06 0.03,0.13 0.06,0.19c0.03,0.06 0.06,0.12 0.1,0.17c0.04,0.05 0.08,0.1 0.13,0.15c0.1,0.09 0.22,0.17 0.35,0.22c0.13,0.05 0.27,0.08 0.41,0.08c0.14,0 0.28,-0.03 0.41,-0.08c0.13,-0.05 0.25,-0.12 0.35,-0.22c0.1,-0.09 0.18,-0.2 0.23,-0.32c0.05,-0.12 0.08,-0.25 0.08,-0.39c0,-0.13 -0.03,-0.26 -0.08,-0.39c-0.05,-0.12 -0.13,-0.23 -0.23,-0.32c-0.1,-0.09 -0.22,-0.17 -0.35,-0.22c-0.13,-0.05 -0.27,-0.08 -0.41,-0.08c-0.14,0 -0.28,0.03 -0.41,0.08c-0.13,0.05 -0.25,0.12 -0.35,0.22c-0.05,0.04 -0.1,0.09 -0.14,0.15c-0.04,0.05 -0.07,0.11 -0.1,0.17c-0.03,0.06 -0.05,0.12 -0.06,0.19c-0.01,0.06 -0.02,0.13 -0.02,0.2zM86.78,36.78h1.46v-7.17h-1.46z" />
	<path id="Layer" class="shp1" d="M97.19,30.58c-0.09,-0.1 -0.19,-0.18 -0.3,-0.27c-0.1,-0.08 -0.21,-0.16 -0.33,-0.23c-0.11,-0.07 -0.23,-0.14 -0.35,-0.2c-0.12,-0.06 -0.24,-0.11 -0.37,-0.16c-0.13,-0.05 -0.26,-0.09 -0.39,-0.12c-0.13,-0.04 -0.27,-0.06 -0.4,-0.09c-0.14,-0.02 -0.27,-0.04 -0.41,-0.05c-0.14,-0.01 -0.27,-0.02 -0.41,-0.02c-0.14,0 -0.28,0 -0.42,0.01c-0.14,0.01 -0.28,0.03 -0.42,0.05c-0.14,0.02 -0.28,0.05 -0.41,0.09c-0.14,0.04 -0.27,0.08 -0.4,0.13c-0.12,0.04 -0.23,0.09 -0.34,0.15c-0.11,0.05 -0.22,0.11 -0.33,0.18c-0.11,0.07 -0.21,0.14 -0.31,0.21c-0.1,0.08 -0.2,0.16 -0.29,0.24c-0.09,0.08 -0.17,0.17 -0.25,0.26c-0.08,0.09 -0.15,0.19 -0.22,0.29c-0.07,0.1 -0.13,0.2 -0.19,0.31c-0.06,0.11 -0.11,0.22 -0.16,0.33c-0.05,0.12 -0.09,0.24 -0.13,0.37c-0.04,0.13 -0.07,0.25 -0.09,0.38c-0.02,0.13 -0.04,0.26 -0.05,0.39c-0.01,0.13 -0.02,0.26 -0.02,0.39c0,0.13 0,0.26 0.01,0.39c0.01,0.13 0.03,0.26 0.05,0.39c0.02,0.13 0.06,0.25 0.09,0.38c0.04,0.12 0.08,0.25 0.13,0.37c0.05,0.11 0.1,0.22 0.16,0.33c0.06,0.11 0.12,0.21 0.19,0.31c0.07,0.1 0.14,0.19 0.22,0.29c0.08,0.09 0.16,0.18 0.25,0.26c0.09,0.08 0.19,0.16 0.29,0.24c0.1,0.07 0.2,0.14 0.31,0.21c0.11,0.06 0.22,0.12 0.33,0.18c0.11,0.05 0.23,0.1 0.35,0.14c0.13,0.05 0.26,0.09 0.4,0.12c0.13,0.03 0.27,0.06 0.41,0.09c0.14,0.02 0.27,0.04 0.41,0.05c0.14,0.01 0.28,0.02 0.42,0.01c0.14,0 0.27,0 0.41,-0.01c0.14,-0.01 0.27,-0.03 0.4,-0.05c0.13,-0.02 0.27,-0.05 0.4,-0.08c0.13,-0.03 0.26,-0.07 0.39,-0.11c0.13,-0.04 0.25,-0.09 0.37,-0.15c0.12,-0.06 0.24,-0.12 0.35,-0.19c0.11,-0.07 0.22,-0.15 0.32,-0.23c0.1,-0.08 0.2,-0.17 0.29,-0.27l-1.04,-0.97c-0.06,0.06 -0.12,0.12 -0.18,0.18c-0.06,0.06 -0.13,0.11 -0.2,0.16c-0.07,0.05 -0.14,0.1 -0.21,0.14c-0.07,0.04 -0.15,0.08 -0.22,0.12c-0.08,0.04 -0.17,0.07 -0.25,0.09c-0.09,0.03 -0.17,0.05 -0.26,0.07c-0.09,0.02 -0.18,0.03 -0.27,0.04c-0.09,0.01 -0.18,0.01 -0.27,0.01c-0.09,0 -0.17,0 -0.26,-0.01c-0.09,-0.01 -0.17,-0.02 -0.26,-0.03c-0.09,-0.02 -0.17,-0.04 -0.26,-0.06c-0.08,-0.02 -0.17,-0.05 -0.25,-0.09c-0.15,-0.06 -0.28,-0.13 -0.41,-0.22c-0.13,-0.09 -0.25,-0.19 -0.36,-0.3c-0.11,-0.11 -0.21,-0.23 -0.29,-0.37c-0.09,-0.13 -0.16,-0.27 -0.21,-0.42c-0.03,-0.07 -0.06,-0.15 -0.08,-0.23c-0.02,-0.08 -0.04,-0.16 -0.06,-0.24c-0.02,-0.08 -0.03,-0.16 -0.03,-0.24c-0.01,-0.08 -0.01,-0.16 -0.01,-0.24c0,-0.08 0,-0.16 0.01,-0.24c0.01,-0.08 0.02,-0.16 0.03,-0.24c0.01,-0.08 0.03,-0.16 0.05,-0.24c0.02,-0.08 0.04,-0.16 0.07,-0.23c0.02,-0.07 0.05,-0.15 0.08,-0.22c0.03,-0.07 0.07,-0.14 0.1,-0.21c0.04,-0.07 0.08,-0.14 0.12,-0.2c0.04,-0.06 0.09,-0.13 0.14,-0.19c0.05,-0.06 0.11,-0.12 0.16,-0.17c0.06,-0.05 0.12,-0.1 0.18,-0.15c0.06,-0.05 0.13,-0.09 0.2,-0.13c0.07,-0.04 0.14,-0.08 0.21,-0.11c0.08,-0.04 0.17,-0.07 0.25,-0.09c0.09,-0.03 0.17,-0.05 0.26,-0.07c0.09,-0.02 0.18,-0.03 0.27,-0.04c0.09,-0.01 0.18,-0.01 0.27,-0.01c0.09,0 0.18,0 0.27,0.01c0.09,0.01 0.18,0.02 0.27,0.04c0.09,0.02 0.18,0.04 0.27,0.07c0.09,0.03 0.17,0.06 0.26,0.09c0.08,0.04 0.16,0.08 0.23,0.12c0.08,0.04 0.15,0.09 0.22,0.14c0.07,0.05 0.14,0.1 0.21,0.16c0.07,0.06 0.13,0.11 0.19,0.18z" />
	<path id="Layer" class="shp2" d="M56.36,13.14c-0.05,-0.04 -0.11,-0.08 -0.16,-0.12c-0.06,-0.04 -0.11,-0.07 -0.17,-0.09c-0.06,-0.03 -0.12,-0.05 -0.18,-0.07c-0.06,-0.02 -0.13,-0.04 -0.19,-0.05" />
	<path id="Layer" class="shp2" d="M15.41,13.93c0,0 0.04,0.02 0.12,0.05" />
	<path id="Layer" class="shp2" d="M15.29,25.34c-0.15,0.03 -0.23,0.05 -0.23,0.05" />
	<path id="Layer" class="shp2" d="M55.82,26.8c0.13,-0.03 0.25,-0.06 0.38,-0.11c0.12,-0.04 0.25,-0.09 0.36,-0.14c0.12,-0.05 0.24,-0.11 0.35,-0.18c0.11,-0.06 0.22,-0.13 0.33,-0.21" />
</svg>