<svg id="Layer_1" data-name="Layer 1" xmlns="http://www.w3.org/2000/svg" viewBox="0 0 200 50"><defs><style>.cls-1{fill:#639;}.cls-2{fill:#056bb7;}.cls-3,.cls-4{fill:none;stroke:#fff;stroke-miterlimit:10;}.cls-3{stroke-width:0.35432px;}.cls-4{stroke-width:0.35963px;}</style></defs><title>logo</title><path class="cls-1" d="M69.258,30.48686c-3.54262,8.13524-12.46334,13.906-22.91092,13.906-11.1529,0-20.56654-6.57631-23.55211-15.5812,1.64708-.30455,11.02065-1.78733,26.35737.96583C61.16286,31.92956,66.82146,31.20821,69.258,30.48686Z"/><path class="cls-1" d="M46.34709.99961c-10.82429,0-20.0135,6.19559-23.27562,14.79973,1.1662.44482,9.87451,3.39836,28.52146-.05612,11.5777-2.144,15.9138-1.7152,17.4647-1.27839C65.39078,6.562,56.60231.99961,46.34709.99961ZM31.52146,12.10919a.03949.03949,0,0,1-.06942-.03632l.0034-.00912a9.29764,9.29764,0,0,1,1.7901-2.92866,10.18311,10.18311,0,0,1,1.27123-1.20325A12.009,12.009,0,0,1,35.996,6.97032c.26461-.12991.53579-.24641.80321-.36918.27586-.10224.54805-.21475.82819-.30281.28464-.07306.56661-.153.851-.21808.286-.05748.573-.1112.86175-.14314a9.35451,9.35451,0,0,1,3.42683.18941l.00942.00238a.03949.03949,0,0,1-.00942.07778,12.91077,12.91077,0,0,0-11.24558,5.90251ZM43.18878,7.969a13.03568,13.03568,0,0,0-4.87689,1.30965,12.61757,12.61757,0,0,0-3.97351,3.11132.03908.03908,0,0,1-.0657-.04035l.00482-.01177a6.79129,6.79129,0,0,1,1.49707-2.19924,8.74808,8.74808,0,0,1,1.02228-.87752,11.6321,11.6321,0,0,1,1.15881-.69985,11.59376,11.59376,0,0,1,1.25753-.49915,8.95777,8.95777,0,0,1,1.3145-.28638A6.98172,6.98172,0,0,1,43.183,7.889l.01221.00306a.03909.03909,0,0,1-.00641.07688Z"/><path class="cls-2" d="M7.72479,14.5368H9.46454V19.485h6.6499V14.5368h1.73975v11.917H16.11444v-5.4541H9.46454v5.4541H7.72479Z"/><path class="cls-2" d="M20.31854,22.464a3.80975,3.80975,0,0,1,.35352-1.63232,4.25635,4.25635,0,0,1,.96924-1.33008,4.56185,4.56185,0,0,1,1.4497-.90039,5.068,5.068,0,0,1,3.58789,0,4.57266,4.57266,0,0,1,1.44971.90039,4.26409,4.26409,0,0,1,.96924,1.33008,3.817,3.817,0,0,1,.35352,1.63232,3.87068,3.87068,0,0,1-.35352,1.64112,4.13308,4.13308,0,0,1-.96924,1.33007,4.65134,4.65134,0,0,1-1.44971.89258,5.068,5.068,0,0,1-3.58789,0,4.64015,4.64015,0,0,1-1.4497-.89258,4.12583,4.12583,0,0,1-.96924-1.33007A3.86333,3.86333,0,0,1,20.31854,22.464Zm1.73975,0a3.05841,3.05841,0,0,0,.19922,1.11963,2.49047,2.49047,0,0,0,.56152.875,2.60334,2.60334,0,0,0,.88818.57227,3.40069,3.40069,0,0,0,2.35547,0,2.60585,2.60585,0,0,0,.8877-.57227,2.49842,2.49842,0,0,0,.562-.875,3.24443,3.24443,0,0,0,0-2.23877,2.49851,2.49851,0,0,0-.562-.875,2.613,2.613,0,0,0-.8877-.57226,3.40069,3.40069,0,0,0-2.35547,0,2.61044,2.61044,0,0,0-.88818.57226,2.49056,2.49056,0,0,0-.56152.875A3.05768,3.05768,0,0,0,22.05829,22.464Z"/><path class="cls-2" d="M31.49872,18.47527h1.522v1.24561h.03613a1.30439,1.30439,0,0,1,.28077-.4209,2.82616,2.82616,0,0,1,.58007-.48,3.68482,3.68482,0,0,1,.8335-.38672,3.32835,3.32835,0,0,1,1.06006-.16016,3.22936,3.22936,0,0,1,1.61279.37012,2.84168,2.84168,0,0,1,1.06885,1.11133,2.658,2.658,0,0,1,1.17773-1.11133,3.49286,3.49286,0,0,1,1.54053-.37012,3.79393,3.79393,0,0,1,1.63086.30323,2.58314,2.58314,0,0,1,.99658.79931,2.93947,2.93947,0,0,1,.498,1.12793,6.162,6.162,0,0,1,.13623,1.3042v4.646H42.842V22.00994a5.90892,5.90892,0,0,0-.06348-.87549,1.93371,1.93371,0,0,0-.26269-.74072,1.45725,1.45725,0,0,0-.562-.51318,2.043,2.043,0,0,0-.96045-.19336,1.97531,1.97531,0,0,0-1.68506.67334,2.80081,2.80081,0,0,0-.50733,1.7334v4.35986H37.17011V22.279a7.8321,7.8321,0,0,0-.06348-1.04345,2.33167,2.33167,0,0,0-.25342-.81641,1.34654,1.34654,0,0,0-.54394-.53857,1.98661,1.98661,0,0,0-.95118-.19336,2.29207,2.29207,0,0,0-.84277.15967,1.99617,1.99617,0,0,0-.71533.48,2.28245,2.28245,0,0,0-.48926.81591,3.408,3.408,0,0,0-.18164,1.16993v4.14111H31.49872Z"/><path class="cls-2" d="M46.5202,22.464a3.80975,3.80975,0,0,1,.35352-1.63232,4.25635,4.25635,0,0,1,.96924-1.33008,4.56185,4.56185,0,0,1,1.4497-.90039,5.068,5.068,0,0,1,3.58789,0,4.57266,4.57266,0,0,1,1.44971.90039,4.26409,4.26409,0,0,1,.96924,1.33008A3.817,3.817,0,0,1,55.653,22.464a3.87068,3.87068,0,0,1-.35352,1.64112,4.13308,4.13308,0,0,1-.96924,1.33007,4.65134,4.65134,0,0,1-1.44971.89258,5.068,5.068,0,0,1-3.58789,0,4.64015,4.64015,0,0,1-1.4497-.89258,4.12583,4.12583,0,0,1-.96924-1.33007A3.86333,3.86333,0,0,1,46.5202,22.464Zm1.73975,0a3.05841,3.05841,0,0,0,.19922,1.11963,2.49047,2.49047,0,0,0,.56152.875,2.60329,2.60329,0,0,0,.88819.57227,3.40066,3.40066,0,0,0,2.35546,0,2.60585,2.60585,0,0,0,.8877-.57227,2.49842,2.49842,0,0,0,.562-.875,3.24443,3.24443,0,0,0,0-2.23877,2.49851,2.49851,0,0,0-.562-.875,2.613,2.613,0,0,0-.8877-.57226,3.40066,3.40066,0,0,0-2.35546,0,2.61039,2.61039,0,0,0-.88819.57226,2.49056,2.49056,0,0,0-.56152.875A3.05768,3.05768,0,0,0,48.26,22.464Z"/><path class="cls-2" d="M58.93231,23.01971a1.8878,1.8878,0,0,0,.24463.95117,2.41358,2.41358,0,0,0,.64307.73193,3.03369,3.03369,0,0,0,.92431.47119,3.53954,3.53954,0,0,0,1.08741.16846,2.57582,2.57582,0,0,0,1.32275-.32812,4.177,4.177,0,0,0,1.03272-.86719l1.23242.87549a4.67952,4.67952,0,0,1-3.80567,1.6333,5.05311,5.05311,0,0,1-1.83886-.32032,4.02185,4.02185,0,0,1-1.39551-.88378,3.88767,3.88767,0,0,1-.87891-1.32959,4.39792,4.39792,0,0,1-.3081-1.65821,4.08717,4.08717,0,0,1,1.25976-2.9873,4.23952,4.23952,0,0,1,1.4043-.88379,4.82574,4.82574,0,0,1,1.77539-.31983,4.52456,4.52456,0,0,1,1.93018.37012,3.77974,3.77974,0,0,1,1.29541.96826,3.73738,3.73738,0,0,1,.73388,1.3462,5.24148,5.24148,0,0,1,.22656,1.52343v.53858Zm5.146-1.21192a3.00187,3.00187,0,0,0-.17188-.92578,2.01877,2.01877,0,0,0-.46191-.73193,2.14329,2.14329,0,0,0-.77051-.48828,3.01327,3.01327,0,0,0-1.07812-.17676,2.7923,2.7923,0,0,0-1.09619.21045,2.68871,2.68871,0,0,0-.84278.54687,2.51557,2.51557,0,0,0-.53418.749,1.93658,1.93658,0,0,0-.19043.8164Z"/><path class="cls-2" d="M67.35809,22.464a3.80975,3.80975,0,0,1,.35352-1.63232,4.25635,4.25635,0,0,1,.96924-1.33008,4.56185,4.56185,0,0,1,1.4497-.90039,5.068,5.068,0,0,1,3.5879,0,4.57273,4.57273,0,0,1,1.4497.90039,4.26409,4.26409,0,0,1,.96924,1.33008,3.817,3.817,0,0,1,.35352,1.63232,3.87068,3.87068,0,0,1-.35352,1.64112,4.13308,4.13308,0,0,1-.96924,1.33007,4.6514,4.6514,0,0,1-1.4497.89258,5.068,5.068,0,0,1-3.5879,0,4.64015,4.64015,0,0,1-1.4497-.89258,4.12583,4.12583,0,0,1-.96924-1.33007A3.86333,3.86333,0,0,1,67.35809,22.464Zm1.73975,0a3.05841,3.05841,0,0,0,.19922,1.11963,2.49047,2.49047,0,0,0,.56152.875,2.60329,2.60329,0,0,0,.88819.57227,3.40066,3.40066,0,0,0,2.35546,0,2.60585,2.60585,0,0,0,.8877-.57227,2.49842,2.49842,0,0,0,.562-.875,3.24443,3.24443,0,0,0,0-2.23877,2.49851,2.49851,0,0,0-.562-.875,2.613,2.613,0,0,0-.8877-.57226,3.40066,3.40066,0,0,0-2.35546,0,2.61039,2.61039,0,0,0-.88819.57226,2.49056,2.49056,0,0,0-.56152.875A3.05768,3.05768,0,0,0,69.09784,22.464Z"/><path class="cls-2" d="M81.78046,32.30145A3.66221,3.66221,0,0,0,80.363,31.26238a4.50153,4.50153,0,0,0-1.77149-.36426,5.04765,5.04765,0,0,0-2.02344.39063A4.6429,4.6429,0,0,0,75.0202,32.3532a4.81011,4.81011,0,0,0-.998,1.585,5.32292,5.32292,0,0,0-.354,1.94922,5.03785,5.03785,0,0,0,.33545,1.83594,4.481,4.481,0,0,0,2.51758,2.56445,5.33882,5.33882,0,0,0,2.07031.38086,4.3663,4.3663,0,0,0,1.99512-.43359,4.18726,4.18726,0,0,0,1.45459-1.21192l1.51074,1.05665a5.76494,5.76494,0,0,1-.522.54492,5.18032,5.18032,0,0,1-.98877.71093,7.2867,7.2867,0,0,1-1.48242.623,6.76719,6.76719,0,0,1-2.00489.26856,6.947,6.947,0,0,1-2.82519-.55371,6.832,6.832,0,0,1-2.14453-1.45508,6.28391,6.28391,0,0,1-1.35205-2.03614,5.98575,5.98575,0,0,1-.46631-2.29492,6.7389,6.7389,0,0,1,.50342-2.624,6.16761,6.16761,0,0,1,1.4082-2.0791,6.34106,6.34106,0,0,1,2.17236-1.35938,7.77493,7.77493,0,0,1,2.79737-.48535,7.31838,7.31838,0,0,1,2.56445.46777,4.76866,4.76866,0,0,1,2.06055,1.4375Z"/><path class="cls-2" d="M85.41669,28.82H87.0954V41.9157H85.41669Z"/><path class="cls-2" d="M89.50067,30.76043a1.0618,1.0618,0,0,1,.36377-.80566,1.28173,1.28173,0,0,1,1.73438,0,1.073,1.073,0,0,1,0,1.61035,1.28176,1.28176,0,0,1-1.73438,0A1.06131,1.06131,0,0,1,89.50067,30.76043Zm.3916,2.94434H91.571V41.9157H89.89227Z"/><path class="cls-2" d="M94.23749,33.70477H95.9162v1.26464h.03711a2.38368,2.38368,0,0,1,1.1001-1.06543,3.86676,3.86676,0,0,1,1.80908-.40722,4.11374,4.11374,0,0,1,1.22168.18164,2.835,2.835,0,0,1,1.02588.56347,2.7191,2.7191,0,0,1,.69922.97852A3.51158,3.51158,0,0,1,102.07,36.6325v5.2832H100.3913V37.06512a2.56622,2.56622,0,0,0-.16748-.97852,1.78,1.78,0,0,0-.44776-.6582,1.7264,1.7264,0,0,0-.64306-.36426,2.56728,2.56728,0,0,0-.75537-.1123,2.91391,2.91391,0,0,0-.96973.15625,2.03346,2.03346,0,0,0-.7832.49316,2.30817,2.30817,0,0,0-.52247.85742,3.65715,3.65715,0,0,0-.186,1.23047V41.9157H94.23749Z"/><path class="cls-2" d="M104.3454,30.76043a1.05894,1.05894,0,0,1,.36426-.80566,1.28172,1.28172,0,0,1,1.73437,0,1.07394,1.07394,0,0,1,0,1.61035,1.28175,1.28175,0,0,1-1.73437,0A1.05845,1.05845,0,0,1,104.3454,30.76043Zm.3916,2.94434h1.67871V41.9157H104.737Z"/><path class="cls-2" d="M115.403,35.88738a3.52841,3.52841,0,0,0-.97852-.68457,2.93833,2.93833,0,0,0-1.22168-.2334,2.887,2.887,0,0,0-1.20312.2334,2.42553,2.42553,0,0,0-.85743.6416,2.8077,2.8077,0,0,0-.52246.93555,3.43083,3.43083,0,0,0-.17676,1.09961,2.86386,2.86386,0,0,0,.20508,1.083,2.64839,2.64839,0,0,0,1.47266,1.48926,3.04172,3.04172,0,0,0,1.1748.21679,2.85864,2.85864,0,0,0,1.21289-.23437,3.08545,3.08545,0,0,0,.93165-.6836l1.19433,1.1084a3.78307,3.78307,0,0,1-1.52051.96973,5.67494,5.67494,0,0,1-1.83691.29492,5.41634,5.41634,0,0,1-1.874-.31152,4.38745,4.38745,0,0,1-1.46387-.875,3.85262,3.85262,0,0,1-.95117-1.35157,4.40033,4.40033,0,0,1-.33594-1.74121,4.46323,4.46323,0,0,1,.33594-1.749,3.98438,3.98438,0,0,1,.9414-1.36816,4.3115,4.3115,0,0,1,1.45508-.89258,5.31438,5.31438,0,0,1,1.89258-.32031,5.40336,5.40336,0,0,1,1.85547.32031,4.1147,4.1147,0,0,1,1.53906.97851Z"/><path class="cls-3" d="M69.87518,14.84154a1.81146,1.81146,0,0,0-.81753-.37671"/><path class="cls-3" d="M23.07148,15.79933c-.09217-.03606-.13625-.0561-.13625-.0561"/><path class="cls-4" d="M22.795,28.81171c-.17233.03206-.26049.0521-.26049.0521"/><path class="cls-4" d="M70.88908,29.7655a4.735,4.735,0,0,1-1.63106.72135"/></svg>